<svg width="596" height="665" viewBox="0 0 596 665" fill="none" xmlns="http://www.w3.org/2000/svg">
<mask id="mask0_3436_1296" style="mask-type:luminance" maskUnits="userSpaceOnUse" x="0" y="0" width="596" height="665">
<path d="M595.132 0H0V665H595.132V0Z" fill="white"/>
</mask>
<g mask="url(#mask0_3436_1296)">
<mask id="mask1_3436_1296" style="mask-type:luminance" maskUnits="userSpaceOnUse" x="67" y="0" width="743" height="743">
<path d="M438.355 742.353C643.35 742.353 809.532 576.172 809.532 371.176C809.532 166.181 643.35 0 438.355 0C233.36 0 67.1787 166.181 67.1787 371.176C67.1787 576.172 233.36 742.353 438.355 742.353Z" fill="white"/>
</mask>
<g mask="url(#mask1_3436_1296)">
<path d="M863.012 732.28C855.803 722.018 848.449 711.764 840.927 701.525C828.427 693.087 815.455 684.076 801.778 674.578C744.657 634.891 678.314 588.802 587.415 542.88C598.948 553.149 610.263 563.374 621.368 573.562C700.305 614.375 757.208 656.068 806.4 692.099C826.632 706.924 845.178 720.507 863.012 732.287V732.28Z" fill="#99E4D3"/>
<path d="M605.095 434.263C581.193 411.168 556.252 387.942 530.228 364.563C427.032 320.16 313.074 275.815 188.426 231.55C218.156 252.414 247.029 273.053 275.074 293.496C335.777 316.577 394.693 340.348 451.581 364.745C506.21 388.167 557.262 411.408 605.095 434.271V434.263Z" fill="#99E4D3"/>
<path d="M794.176 528.136C778.915 507.235 762.84 486.341 745.98 465.433C684.571 433.995 617.741 402.579 545.526 371.177C571.507 394.781 596.405 418.218 620.227 441.531C685.167 472.911 744.04 503.543 797.679 532.932C796.509 531.333 795.346 529.734 794.169 528.136H794.176Z" fill="#99E4D3"/>
<path d="M757.468 596.2C752.221 589.994 746.873 583.78 741.48 577.567C662.55 530.598 568.999 478.485 448.979 426.175C465.28 439.249 481.232 452.25 496.835 465.178C616.883 518.811 704.548 573.039 777.78 620.437C771.124 612.363 764.358 604.289 757.468 596.207V596.2Z" fill="#99E4D3"/>
<path d="M682.282 512.197C595.408 465.614 494.219 415.811 371.692 365.624C391.452 380.754 410.747 395.783 429.591 410.71C551.841 462.62 647.377 514.61 727.731 561.884C713.095 545.365 697.972 528.81 682.282 512.205V512.197Z" fill="#99E4D3"/>
<path d="M525.628 360.428C421.953 315.981 307.5 271.585 182.351 227.277C184.385 228.701 186.406 230.118 188.433 231.543C313.082 275.808 427.04 320.16 530.235 364.556C528.702 363.182 527.169 361.802 525.635 360.428H525.628Z" fill="#99E4D3"/>
<path d="M171.545 223.469C130.586 209.043 88.4944 194.618 45.2686 180.214V182.314C90.6455 197.445 134.772 212.582 177.649 227.735C175.622 226.318 173.58 224.893 171.545 223.476V223.469Z" fill="#99E4D3"/>
<path d="M742.956 461.683C681.075 430.121 613.751 398.581 540.998 367.062C542.517 368.436 544.014 369.81 545.526 371.183C617.741 402.585 684.563 434.001 745.979 465.44C744.969 464.19 743.973 462.94 742.963 461.69L742.956 461.683Z" fill="#99E4D3"/>
<path d="M264.239 289.383C193.514 262.683 120.405 236.935 45.2686 212.277V215.984C124.235 241.913 200.956 269.049 275.016 297.225C271.441 294.616 267.844 291.999 264.239 289.383Z" fill="#99E4D3"/>
<path d="M613.046 441.953C610.416 439.394 607.749 436.822 605.096 434.264C557.263 411.401 506.21 388.16 451.582 364.738C394.694 340.341 335.771 316.57 275.074 293.489C278.679 296.113 282.262 298.736 285.837 301.352C342.318 322.994 397.223 345.24 450.361 368.03C508.492 392.957 562.59 417.673 613.046 441.96V441.953Z" fill="#99E4D3"/>
<path d="M558.884 674.622C433.698 651.316 266.892 662.122 48.9385 707.666L52.0125 724.686C268.011 679.549 432.913 668.765 556.137 691.7C660.684 711.162 715.196 750.66 763.291 785.506C768.152 789.031 772.927 792.483 777.665 795.855H807.832C796.313 788.508 784.729 780.129 772.295 771.124C725.305 737.084 666.832 694.716 558.884 674.615V674.622Z" fill="#99E4D3"/>
<path d="M840.926 701.525C835.185 693.705 829.357 685.893 823.426 678.081C817.94 674.287 812.358 670.414 806.661 666.453C742.949 622.188 667.819 569.995 560.133 518.876C569.362 526.9 578.454 534.901 587.421 542.88C678.321 588.802 744.664 634.891 801.785 674.578C815.454 684.076 828.434 693.088 840.933 701.525H840.926Z" fill="#99E4D3"/>
<path d="M671.293 500.664C583.243 453.907 480.6 404.09 356.46 354.003C361.569 357.884 366.649 361.758 371.699 365.624C494.226 415.819 595.416 465.622 682.289 512.198C678.662 508.353 674.985 504.509 671.293 500.664Z" fill="#99E4D3"/>
<path d="M777.789 620.43C704.556 573.032 616.891 518.804 496.843 465.171C504.699 471.683 512.453 478.165 520.134 484.64C637.298 539.181 722.347 593.795 794.191 640.596C788.806 633.874 783.334 627.152 777.789 620.43Z" fill="#99E4D3"/>
<path d="M509.641 479.793C502.025 473.413 494.328 467.018 486.538 460.608C455.383 446.909 422.084 433.268 386.329 419.802C283.272 380.988 168.594 347.369 45.2686 319.753V328.067C167.686 355.545 281.513 388.952 383.822 427.484C429.57 444.714 471.298 462.243 509.641 479.793Z" fill="#99E4D3"/>
<path d="M462.723 517.764C534.713 542.96 593.265 570.19 642.69 597.494C632.392 587.821 621.891 578.119 611.201 568.374C569.472 547.349 521.712 526.623 465.942 507.11C374.447 475.091 269.66 449.721 154.481 431.712C119.38 426.226 82.9421 421.364 45.2686 417.127V428.391C82.4116 432.584 118.348 437.381 152.984 442.802C267.582 460.723 371.795 485.948 462.723 517.772V517.764Z" fill="#99E4D3"/>
<path d="M425.442 472.991C482.759 493.971 532.7 515.751 576.928 537.633C568.084 529.821 559.116 521.987 550.018 514.123C513.412 497.096 473.122 480.222 428.342 463.834C328.758 427.388 216.006 397.135 93.2036 373.909C77.4626 370.929 61.4746 368.066 45.2686 365.29V375.086C60.9368 377.775 76.4089 380.551 91.6411 383.436C213.986 406.575 326.294 436.705 425.442 472.991Z" fill="#99E4D3"/>
<path d="M438.356 421.561C431.975 416.474 425.536 411.372 419.047 406.256C395.675 396.46 371.359 386.671 345.989 376.918C252.771 341.097 151.916 308.547 45.2686 279.805V286.622C151.16 315.219 251.325 347.565 343.918 383.146C377.129 395.907 408.546 408.734 438.356 421.561Z" fill="#99E4D3"/>
<path d="M539.647 647.748C660.102 677.616 724.956 726.983 777.062 766.64C790.776 777.076 803.864 787.025 817.025 795.855H832.105C826.32 789.009 820.484 782.192 814.605 775.412C805.237 768.719 795.659 761.43 785.55 753.734C732.383 713.269 666.222 662.914 542.947 632.341C415.362 600.699 251.965 596.404 45.2686 619.412V635.299C251.027 612.276 413.327 616.411 539.647 647.74V647.748Z" fill="#99E4D3"/>
<path d="M494.016 561.514C588.913 592.501 657.109 628.932 711.294 664.346C698.7 651.584 685.764 638.772 672.486 625.909C625.634 599.136 569.073 572.713 497.454 549.326C414.134 522.118 317.77 501.929 211.043 489.313C159.009 483.165 103.647 478.71 45.2617 475.949V488.703C103.189 491.45 158.123 495.876 209.749 501.98C315.75 514.509 411.387 534.545 494.009 561.521L494.016 561.514Z" fill="#99E4D3"/>
<path d="M262.088 561.238C358.648 568.258 445.209 582.85 519.372 604.616C655.546 644.579 729.156 701.351 788.305 746.96C789.591 747.949 790.863 748.93 792.135 749.911C775.086 730.892 757.608 712.092 739.672 693.451C687.98 657.464 621.659 619.841 522.867 590.844C395.472 553.454 238.2 537.532 45.2686 542.728V557.102C123.297 555.046 195.825 556.427 262.088 561.238Z" fill="#99E4D3"/>
<path d="M360.923 361.228C355.88 357.383 350.807 353.539 345.705 349.68C340.059 347.427 334.383 345.167 328.642 342.907C238.469 307.428 144.205 274.645 45.2686 244.406V249.682C143.624 279.783 237.343 312.392 327.021 347.674C338.503 352.195 349.797 356.708 360.923 361.221V361.228Z" fill="#99E4D3"/>
<path d="M832.999 472.344C844.874 491.254 856.058 510.119 866.654 529C866.697 529.08 866.741 529.16 866.784 529.24V509.553C858.529 495.251 849.932 480.934 840.927 466.603C752.753 325.334 629.05 186.733 462.752 42.8695C414.687 1.1262 361.512 -42.3467 302.938 -87.7817H286.564C349.274 -39.4252 405.879 6.7002 456.764 50.878C622.306 194.087 745.37 331.947 833.006 472.351L832.999 472.344Z" fill="#99E4D3"/>
<path d="M866.791 416.153V391.416C795.942 266.099 695.748 143.768 561.405 18.4659C524.603 -15.981 484.503 -51.3581 440.95 -87.7817H421.706C469.75 -47.9643 513.666 -9.41862 553.673 28.0297C693.59 158.528 796.131 285.618 866.784 416.153H866.791Z" fill="#99E4D3"/>
<path d="M742.957 461.683C743.974 462.933 744.97 464.183 745.973 465.433C762.833 486.341 778.908 507.234 794.169 528.135C795.347 529.734 796.51 531.333 797.68 532.931C799.293 535.133 800.892 537.343 802.491 539.552C815.862 558.054 828.776 576.76 841.305 595.793C843.333 598.875 845.353 601.963 847.359 605.067C853.936 615.219 860.411 625.473 866.784 635.836V621.774C865.004 618.918 863.231 616.069 861.428 613.22C859.495 610.161 857.518 607.109 855.556 604.056C843.522 585.343 830.942 566.659 817.759 547.997C816.211 545.809 814.663 543.614 813.101 541.427C808.77 535.366 804.395 529.305 799.94 523.244C787.934 506.798 775.413 490.36 762.426 473.921C761.445 472.678 760.471 471.428 759.483 470.186C657.784 342.173 525.956 213.774 358.387 79.3803C293.134 26.8524 220.127 -28.4734 137.665 -87.7817H124.438C210.549 -26.068 286.441 31.3218 353.99 85.7029C515.171 214.973 643.148 338.619 742.957 461.676V461.683Z" fill="#99E4D3"/>
<path d="M811.138 212.023C831.61 241.259 850.076 270.408 866.79 299.855V271.476C853.092 248.57 838.31 225.794 822.322 202.968C776.138 137.017 721.132 72.2148 654.157 4.86159C624.18 -25.3921 591.673 -56.2417 556.528 -87.7817H534.596C574.537 -52.3973 611.149 -17.8995 644.586 15.8425C710.973 82.5997 765.448 146.77 811.138 212.016V212.023Z" fill="#99E4D3"/>
<path d="M171.545 223.469C173.579 224.893 175.622 226.31 177.649 227.727C207.351 248.497 236.209 269.042 264.239 289.383C267.843 291.999 271.433 294.615 275.016 297.224C299.194 314.862 322.755 332.347 345.698 349.687C350.799 353.538 355.879 357.39 360.915 361.235C380.755 376.351 400.122 391.357 419.039 406.263C425.529 411.379 431.968 416.48 438.348 421.568C454.758 434.656 470.819 447.664 486.53 460.607C494.321 467.024 502.017 473.42 509.633 479.793C523.361 491.29 536.82 502.736 550.003 514.124C559.102 521.987 568.069 529.821 576.914 537.633C588.556 547.917 599.987 558.163 611.193 568.374C621.884 578.112 632.385 587.821 642.683 597.494C652.799 607 662.733 616.469 672.478 625.909C685.756 638.772 698.692 651.584 711.286 664.346C715.486 668.604 719.658 672.856 723.785 677.107C729.12 682.543 734.403 687.993 739.657 693.458C757.593 712.099 775.071 730.892 792.12 749.918C799.692 758.37 807.185 766.873 814.597 775.419C820.477 782.199 826.312 789.016 832.097 795.862H836.036C832.213 791.327 828.376 786.814 824.51 782.308C817.991 774.707 811.422 767.149 804.779 759.62C787.825 740.412 770.449 721.445 752.615 702.652C743.785 693.342 734.854 684.069 725.791 674.84C725.006 674.033 724.214 673.226 723.429 672.42C710.406 659.055 697.013 645.64 683.241 632.166C673.532 622.668 663.634 613.133 653.54 603.577C643.017 593.606 632.29 583.599 621.353 573.563C610.256 563.374 598.934 553.149 587.4 542.88C578.44 534.901 569.341 526.9 560.112 518.876C547.052 507.518 533.717 496.101 520.113 484.64C512.431 478.165 504.67 471.675 496.821 465.171C481.218 452.243 465.266 439.242 448.966 426.168C442.556 421.023 436.088 415.87 429.57 410.703C410.733 395.776 391.438 380.755 371.671 365.617C366.62 361.751 361.54 357.877 356.432 353.996C333.511 336.591 309.979 319.048 285.815 301.345C282.24 298.729 278.657 296.105 275.053 293.482C247.015 273.046 218.135 252.4 188.405 231.535C186.384 230.118 184.357 228.694 182.322 227.269C166.414 216.136 150.273 204.937 133.878 193.68C104.947 173.731 75.4276 153.688 45.2393 133.463V137.155C74.8825 157.024 103.879 176.718 132.309 196.318C145.542 205.409 158.602 214.457 171.516 223.461L171.545 223.469Z" fill="#99E4D3"/>
</g>
</g>
</svg>
