<?xml version="1.0" encoding="utf-8"?>
<!-- Generator: Adobe Illustrator 28.3.0, SVG Export Plug-In . SVG Version: 6.00 Build 0)  -->
<svg version="1.1" id="Capa_1" xmlns="http://www.w3.org/2000/svg" xmlns:xlink="http://www.w3.org/1999/xlink" x="0px" y="0px"
	 viewBox="0 0 611.5 74" style="enable-background:new 0 0 611.5 74;" xml:space="preserve">
<style type="text/css">
	.st0{clip-path:url(#SVGID_00000166665963854846840960000015282966354394830481_);}
	.st1{fill:none;stroke:#EBFF8D;stroke-width:2.9089;stroke-miterlimit:10;}
	.st2{fill:none;stroke:#EBFF8D;stroke-width:5.1253;stroke-miterlimit:10;}
	.st3{fill:none;stroke:#EBFF8D;stroke-width:7.3416;stroke-miterlimit:10;}
	.st4{fill:none;stroke:#EBFF8D;stroke-width:9.558;stroke-miterlimit:10;}
	.st5{fill:none;stroke:#EBFF8D;stroke-width:11.7743;stroke-miterlimit:10;}
	.st6{fill:none;stroke:#EBFF8D;stroke-width:13.9906;stroke-miterlimit:10;}
	.st7{fill:none;stroke:#EBFF8D;stroke-width:16.207;stroke-miterlimit:10;}
	.st8{fill:none;stroke:#EBFF8D;stroke-width:18.4233;stroke-miterlimit:10;}
	.st9{fill:none;stroke:#EBFF8D;stroke-width:20.6396;stroke-miterlimit:10;}
	.st10{fill:none;stroke:#EBFF8D;stroke-width:22.856;stroke-miterlimit:10;}
	.st11{fill:none;stroke:#EBFF8D;stroke-width:25.0723;stroke-miterlimit:10;}
	.st12{fill:none;stroke:#EBFF8D;stroke-width:27.2887;stroke-miterlimit:10;}
	.st13{fill:none;stroke:#EBFF8D;stroke-width:29.505;stroke-miterlimit:10;}
	.st14{fill:none;stroke:#EBFF8D;stroke-width:31.7213;stroke-miterlimit:10;}
	.st15{fill:none;stroke:#EBFF8D;stroke-width:33.9377;stroke-miterlimit:10;}
	.st16{fill:none;stroke:#EBFF8D;stroke-width:36.154;stroke-miterlimit:10;}
	.st17{fill:none;stroke:#EBFF8D;stroke-width:38.3703;stroke-miterlimit:10;}
	.st18{fill:none;stroke:#EBFF8D;stroke-width:40.5867;stroke-miterlimit:10;}
	.st19{fill:none;stroke:#EBFF8D;stroke-width:42.803;stroke-miterlimit:10;}
	.st20{fill:none;stroke:#EBFF8D;stroke-width:45.0194;stroke-miterlimit:10;}
	.st21{fill:none;stroke:#EBFF8D;stroke-width:47.2357;stroke-miterlimit:10;}
	.st22{fill:none;stroke:#EBFF8D;stroke-width:49.452;stroke-miterlimit:10;}
	.st23{clip-path:url(#SVGID_00000106826875245876078000000010197679886510792332_);}
	.st24{fill:#EBFF8D;}
	.st25{clip-path:url(#SVGID_00000086683771414048239080000003879898390562586800_);}
	.st26{fill:#FBFBFB;}
	.st27{clip-path:url(#SVGID_00000163064889854700508440000010313600407145333398_);fill:#EBFF8D;}
	.st28{clip-path:url(#SVGID_00000163064889854700508440000010313600407145333398_);}
	.st29{clip-path:url(#SVGID_00000062158434196390745180000008599378187148772529_);}
	.st30{fill:#293347;}
	.st31{clip-path:url(#SVGID_00000086656243309306312690000013558868170535340986_);fill:#EBFF8D;}
	.st32{clip-path:url(#SVGID_00000086656243309306312690000013558868170535340986_);}
	.st33{clip-path:url(#SVGID_00000041273635445039799290000008699020172689856655_);}
	.st34{clip-path:url(#SVGID_00000165202294288942857220000011423348815627837090_);}
	.st35{fill:#E3E6E7;}
	.st36{clip-path:url(#SVGID_00000141456664752615120290000018424527455392594361_);}
	.st37{fill:#F4F5F5;}
	.st38{clip-path:url(#SVGID_00000031923950381438288840000018086093543083792267_);fill:#EBFF8D;}
	.st39{clip-path:url(#SVGID_00000031923950381438288840000018086093543083792267_);}
	.st40{clip-path:url(#SVGID_00000155855519502533828800000003144362636737350586_);}
	.st41{fill:#00BC92;}
</style>
<g>
	<g>
		<g>
			<path class="st41" d="M52.6,32.2v41.2h37.4V35.8L90,24.2C88,8.3,75.9,1,63.9,1h-6v10.4h6c11.4,0,14.8,8,15.7,13.3v7.5H52.6z
				 M79.6,64.5l-16.3,0l0-22.4l16.3,0L79.6,64.5z"/>
			<path class="st41" d="M39.4,42.2V1H2v37.7l0.1,11.6c2,15.9,14,23.2,26.1,23.2h6V63.1h-6c-11.4,0-14.8-8-15.7-13.3v-7.5H39.4z
				 M12.4,10l16.3,0l0,22.4l-16.3,0L12.4,10z"/>
		</g>
	</g>
	<g>
		<path class="st41" d="M131.8,52.6c-4.1,0-7.4-1.3-10-3.9c-2.6-2.6-3.8-6-3.8-10.4v-0.8c0-2.9,0.6-5.5,1.7-7.7
			c1.1-2.3,2.7-4,4.7-5.3c2-1.3,4.3-1.9,6.7-1.9c3.9,0,7,1.3,9.1,3.8c2.1,2.5,3.2,6.1,3.2,10.7v2.6h-18.9c0.2,2.4,1,4.3,2.4,5.7
			c1.4,1.4,3.2,2.1,5.3,2.1c3,0,5.4-1.2,7.3-3.6l3.5,3.3c-1.2,1.7-2.7,3.1-4.6,4C136.4,52.1,134.2,52.6,131.8,52.6z M131,27.8
			c-1.8,0-3.2,0.6-4.3,1.9c-1.1,1.2-1.8,3-2.1,5.2H137v-0.5c-0.1-2.2-0.7-3.8-1.7-4.9C134.2,28.4,132.8,27.8,131,27.8z"/>
		<path class="st41" d="M164,44.2c0-1.2-0.5-2-1.4-2.6s-2.5-1.1-4.7-1.6c-2.2-0.5-4.1-1.1-5.5-1.8c-3.2-1.6-4.9-3.8-4.9-6.8
			c0-2.5,1.1-4.6,3.2-6.3c2.1-1.7,4.8-2.5,8-2.5c3.5,0,6.2,0.9,8.4,2.6c2.1,1.7,3.2,3.9,3.2,6.7h-6.5c0-1.2-0.5-2.3-1.4-3.1
			c-0.9-0.8-2.2-1.2-3.7-1.2c-1.4,0-2.6,0.3-3.5,1c-0.9,0.7-1.3,1.5-1.3,2.6c0,1,0.4,1.8,1.3,2.3c0.8,0.6,2.5,1.1,5.1,1.7
			c2.5,0.6,4.5,1.2,6,2s2.5,1.7,3.2,2.8c0.7,1.1,1.1,2.4,1.1,4c0,2.6-1.1,4.7-3.2,6.3c-2.2,1.6-5,2.4-8.5,2.4
			c-2.4,0-4.5-0.4-6.3-1.3c-1.9-0.9-3.3-2-4.3-3.5c-1-1.5-1.5-3.1-1.5-4.8h6.3c0.1,1.5,0.7,2.7,1.7,3.5c1.1,0.8,2.5,1.2,4.2,1.2
			c1.7,0,3-0.3,3.9-1C163.5,46.1,164,45.3,164,44.2z"/>
		<path class="st41" d="M184,16.1v7h5.1V28H184v16.1c0,1.1,0.2,1.9,0.7,2.4c0.4,0.5,1.2,0.7,2.3,0.7c0.7,0,1.5-0.1,2.3-0.3v5
			c-1.5,0.4-2.9,0.6-4.3,0.6c-5,0-7.5-2.8-7.5-8.3V28h-4.8v-4.8h4.8v-7H184z"/>
		<path class="st41" d="M205.6,52.6c-4.1,0-7.4-1.3-10-3.9c-2.6-2.6-3.8-6-3.8-10.4v-0.8c0-2.9,0.6-5.5,1.7-7.7s2.7-4,4.7-5.3
			c2-1.3,4.3-1.9,6.7-1.9c3.9,0,7,1.3,9.1,3.8c2.1,2.5,3.2,6.1,3.2,10.7v2.6h-18.9c0.2,2.4,1,4.3,2.4,5.7c1.4,1.4,3.2,2.1,5.3,2.1
			c3,0,5.4-1.2,7.3-3.6l3.5,3.3c-1.2,1.7-2.7,3.1-4.6,4C210.2,52.1,208,52.6,205.6,52.6z M204.8,27.8c-1.8,0-3.2,0.6-4.3,1.9
			c-1.1,1.2-1.8,3-2.1,5.2h12.4v-0.5c-0.1-2.2-0.7-3.8-1.7-4.9C208,28.4,206.6,27.8,204.8,27.8z"/>
		<path class="st41" d="M228.7,52.1h-6.5V11h6.5V52.1z"/>
		<path class="st41" d="M252.3,52.1c-0.3-0.6-0.5-1.5-0.7-2.7c-2.1,2.2-4.6,3.2-7.6,3.2c-2.9,0-5.3-0.8-7.1-2.5s-2.8-3.7-2.8-6.1
			c0-3.1,1.1-5.4,3.4-7.1c2.3-1.6,5.6-2.5,9.8-2.5h4v-1.9c0-1.5-0.4-2.7-1.3-3.6c-0.8-0.9-2.1-1.3-3.8-1.3c-1.5,0-2.7,0.4-3.6,1.1
			c-0.9,0.7-1.4,1.7-1.4,2.8h-6.5c0-1.6,0.5-3.1,1.6-4.4s2.5-2.5,4.3-3.2s3.8-1.2,6-1.2c3.4,0,6.1,0.8,8.1,2.6c2,1.7,3,4.1,3.1,7.2
			v13c0,2.6,0.4,4.7,1.1,6.2v0.5H252.3z M245.1,47.4c1.3,0,2.5-0.3,3.6-0.9c1.1-0.6,2-1.5,2.6-2.5v-5.5h-3.5c-2.4,0-4.2,0.4-5.4,1.3
			c-1.2,0.8-1.8,2-1.8,3.6c0,1.2,0.4,2.2,1.2,3C242.6,47,243.7,47.4,245.1,47.4z"/>
		<path class="st41" d="M263.7,33c0-1,0.3-1.9,1-2.6c0.7-0.7,1.6-1,2.8-1c1.2,0,2.1,0.3,2.8,1c0.7,0.7,1,1.6,1,2.6
			c0,1-0.3,1.9-1,2.6c-0.7,0.7-1.6,1-2.8,1c-1.2,0-2.1-0.3-2.8-1C264,34.9,263.7,34,263.7,33z"/>
		<path class="st41" d="M290.3,52.6c-4.1,0-7.4-1.3-10-3.9s-3.8-6-3.8-10.4v-0.8c0-2.9,0.6-5.5,1.7-7.7s2.7-4,4.7-5.3
			c2-1.3,4.3-1.9,6.7-1.9c3.9,0,7,1.3,9.1,3.8c2.1,2.5,3.2,6.1,3.2,10.7v2.6H283c0.2,2.4,1,4.3,2.4,5.7c1.4,1.4,3.2,2.1,5.3,2.1
			c3,0,5.4-1.2,7.3-3.6l3.5,3.3c-1.2,1.7-2.7,3.1-4.6,4C294.9,52.1,292.7,52.6,290.3,52.6z M289.5,27.8c-1.8,0-3.2,0.6-4.3,1.9
			c-1.1,1.2-1.8,3-2.1,5.2h12.4v-0.5c-0.1-2.2-0.7-3.8-1.7-4.9C292.7,28.4,291.3,27.8,289.5,27.8z"/>
		<path class="st41" d="M322.5,44.2c0-1.2-0.5-2-1.4-2.6s-2.5-1.1-4.7-1.6c-2.2-0.5-4.1-1.1-5.5-1.8c-3.2-1.6-4.9-3.8-4.9-6.8
			c0-2.5,1.1-4.6,3.2-6.3c2.1-1.7,4.8-2.5,8-2.5c3.5,0,6.2,0.9,8.4,2.6c2.1,1.7,3.2,3.9,3.2,6.7h-6.5c0-1.2-0.5-2.3-1.4-3.1
			c-0.9-0.8-2.2-1.2-3.7-1.2c-1.4,0-2.6,0.3-3.5,1c-0.9,0.7-1.3,1.5-1.3,2.6c0,1,0.4,1.8,1.3,2.3c0.8,0.6,2.5,1.1,5.1,1.7
			c2.5,0.6,4.5,1.2,6,2c1.5,0.8,2.5,1.7,3.2,2.8c0.7,1.1,1.1,2.4,1.1,4c0,2.6-1.1,4.7-3.2,6.3c-2.2,1.6-5,2.4-8.5,2.4
			c-2.4,0-4.5-0.4-6.3-1.3c-1.9-0.9-3.3-2-4.3-3.5c-1-1.5-1.5-3.1-1.5-4.8h6.3c0.1,1.5,0.7,2.7,1.7,3.5c1.1,0.8,2.5,1.2,4.2,1.2
			c1.7,0,3-0.3,3.9-1C322,46.1,322.5,45.3,322.5,44.2z"/>
		<path class="st41" d="M342.5,16.1v7h5.1V28h-5.1v16.1c0,1.1,0.2,1.9,0.7,2.4c0.4,0.5,1.2,0.7,2.3,0.7c0.7,0,1.5-0.1,2.3-0.3v5
			c-1.5,0.4-2.9,0.6-4.3,0.6c-5,0-7.5-2.8-7.5-8.3V28h-4.8v-4.8h4.8v-7H342.5z"/>
		<path class="st41" d="M369.2,49.2c-1.9,2.2-4.6,3.4-8.1,3.4c-3.1,0-5.5-0.9-7.1-2.8c-1.6-1.8-2.4-4.5-2.4-8V23.2h6.5v18.6
			c0,3.7,1.5,5.5,4.6,5.5c3.2,0,5.3-1.1,6.4-3.4V23.2h6.5v28.9h-6.1L369.2,49.2z"/>
		<path class="st41" d="M380.5,37.4c0-4.5,1-8,3.1-10.7c2.1-2.7,4.8-4,8.3-4c3.1,0,5.5,1.1,7.4,3.2V11h6.5v41h-5.9l-0.3-3
			c-1.9,2.3-4.5,3.5-7.8,3.5c-3.4,0-6.1-1.4-8.2-4.1C381.5,45.8,380.5,42.1,380.5,37.4z M387,38c0,2.9,0.6,5.2,1.7,6.9
			c1.1,1.6,2.7,2.5,4.8,2.5c2.7,0,4.6-1.2,5.8-3.6V31.4c-1.2-2.3-3.1-3.5-5.8-3.5c-2.1,0-3.7,0.8-4.9,2.5
			C387.5,32.1,387,34.6,387,38z"/>
		<path class="st41" d="M411.9,15.7c0-1,0.3-1.8,0.9-2.5c0.6-0.7,1.5-1,2.7-1c1.2,0,2.1,0.3,2.7,1c0.6,0.7,1,1.5,1,2.5
			c0,1-0.3,1.8-1,2.4c-0.6,0.6-1.5,1-2.7,1c-1.2,0-2.1-0.3-2.7-1C412.2,17.4,411.9,16.6,411.9,15.7z M418.8,52.1h-6.5V23.2h6.5V52.1
			z"/>
		<path class="st41" d="M423.8,37.3c0-2.8,0.6-5.4,1.7-7.7c1.1-2.3,2.7-4,4.7-5.2c2-1.2,4.4-1.8,7-1.8c3.9,0,7.1,1.3,9.5,3.8
			c2.4,2.5,3.7,5.8,3.9,10l0,1.5c0,2.8-0.5,5.4-1.6,7.6c-1.1,2.2-2.7,4-4.7,5.2c-2,1.2-4.4,1.8-7.1,1.8c-4.1,0-7.3-1.4-9.8-4.1
			c-2.4-2.7-3.7-6.3-3.7-10.9V37.3z M430.3,37.9c0,3,0.6,5.3,1.8,7c1.2,1.7,2.9,2.5,5.1,2.5c2.2,0,3.9-0.9,5.1-2.6s1.8-4.2,1.8-7.5
			c0-2.9-0.6-5.2-1.9-6.9c-1.3-1.7-3-2.6-5.1-2.6c-2.1,0-3.8,0.8-5,2.5C430.9,32,430.3,34.6,430.3,37.9z"/>
		<path class="st41" d="M455.7,33c0-1,0.3-1.9,1-2.6c0.7-0.7,1.6-1,2.8-1c1.2,0,2.1,0.3,2.8,1c0.7,0.7,1,1.6,1,2.6
			c0,1-0.3,1.9-1,2.6c-0.7,0.7-1.6,1-2.8,1c-1.2,0-2.1-0.3-2.8-1C456.1,34.9,455.7,34,455.7,33z"/>
		<path class="st41" d="M468.5,37.4c0-4.5,1-8,3.1-10.7c2.1-2.7,4.8-4,8.3-4c3.1,0,5.5,1.1,7.4,3.2V11h6.5v41h-5.9l-0.3-3
			c-1.9,2.3-4.5,3.5-7.8,3.5c-3.4,0-6.1-1.4-8.2-4.1C469.5,45.8,468.5,42.1,468.5,37.4z M475,38c0,2.9,0.6,5.2,1.7,6.9
			c1.1,1.6,2.7,2.5,4.8,2.5c2.7,0,4.6-1.2,5.8-3.6V31.4c-1.2-2.3-3.1-3.5-5.8-3.5c-2.1,0-3.7,0.8-4.9,2.5
			C475.6,32.1,475,34.6,475,38z"/>
		<path class="st41" d="M499.9,15.7c0-1,0.3-1.8,0.9-2.5c0.6-0.7,1.5-1,2.7-1c1.2,0,2.1,0.3,2.7,1c0.6,0.7,1,1.5,1,2.5
			c0,1-0.3,1.8-1,2.4c-0.6,0.6-1.5,1-2.7,1c-1.2,0-2.1-0.3-2.7-1C500.2,17.4,499.9,16.6,499.9,15.7z M506.8,52.1h-6.5V23.2h6.5V52.1
			z"/>
		<path class="st41" d="M512,37.4c0-4.5,1.1-8.1,3.2-10.8c2.1-2.7,4.9-4,8.4-4c3.3,0,5.9,1.1,7.8,3.4l0.3-2.9h5.8v28
			c0,3.8-1.2,6.8-3.5,9c-2.4,2.2-5.5,3.3-9.5,3.3c-2.1,0-4.2-0.4-6.2-1.3c-2-0.9-3.6-2-4.6-3.5l3.1-3.9c2,2.4,4.5,3.6,7.4,3.6
			c2.2,0,3.9-0.6,5.1-1.8c1.2-1.2,1.9-2.9,1.9-5.1v-1.9c-1.9,2.1-4.4,3.1-7.5,3.1c-3.4,0-6.1-1.3-8.3-4C513,45.9,512,42.2,512,37.4z
			 M518.4,38c0,2.9,0.6,5.2,1.8,6.9c1.2,1.7,2.8,2.5,4.9,2.5c2.6,0,4.6-1.1,5.8-3.4V31.2c-1.2-2.2-3.2-3.3-5.8-3.3
			c-2.1,0-3.8,0.8-5,2.5C519,32.2,518.4,34.7,518.4,38z"/>
		<path class="st41" d="M543.5,15.7c0-1,0.3-1.8,0.9-2.5c0.6-0.7,1.5-1,2.7-1c1.2,0,2.1,0.3,2.7,1c0.6,0.7,1,1.5,1,2.5
			c0,1-0.3,1.8-1,2.4c-0.6,0.6-1.5,1-2.7,1c-1.2,0-2.1-0.3-2.7-1C543.8,17.4,543.5,16.6,543.5,15.7z M550.4,52.1h-6.5V23.2h6.5V52.1
			z"/>
		<path class="st41" d="M565.2,16.1v7h5.1V28h-5.1v16.1c0,1.1,0.2,1.9,0.7,2.4c0.4,0.5,1.2,0.7,2.3,0.7c0.7,0,1.5-0.1,2.3-0.3v5
			c-1.5,0.4-2.9,0.6-4.3,0.6c-5,0-7.5-2.8-7.5-8.3V28h-4.8v-4.8h4.8v-7H565.2z"/>
		<path class="st41" d="M592,52.1c-0.3-0.6-0.5-1.5-0.7-2.7c-2.1,2.2-4.6,3.2-7.6,3.2c-2.9,0-5.3-0.8-7.1-2.5
			c-1.8-1.7-2.8-3.7-2.8-6.1c0-3.1,1.1-5.4,3.4-7.1c2.3-1.6,5.6-2.5,9.8-2.5h4v-1.9c0-1.5-0.4-2.7-1.3-3.6c-0.8-0.9-2.1-1.3-3.8-1.3
			c-1.5,0-2.7,0.4-3.6,1.1s-1.4,1.7-1.4,2.8h-6.5c0-1.6,0.5-3.1,1.6-4.4s2.5-2.5,4.3-3.2s3.8-1.2,6-1.2c3.4,0,6.1,0.8,8.1,2.6
			c2,1.7,3,4.1,3.1,7.2v13c0,2.6,0.4,4.7,1.1,6.2v0.5H592z M584.9,47.4c1.3,0,2.5-0.3,3.6-0.9c1.1-0.6,2-1.5,2.6-2.5v-5.5h-3.5
			c-2.4,0-4.2,0.4-5.4,1.3c-1.2,0.8-1.8,2-1.8,3.6c0,1.2,0.4,2.2,1.2,3C582.4,47,583.5,47.4,584.9,47.4z"/>
		<path class="st41" d="M610.5,52.1H604V11h6.5V52.1z"/>
	</g>
</g>
</svg>
